<?xml version="1.0" encoding="UTF-8"?>
<svg xmlns="http://www.w3.org/2000/svg" viewBox="0 0 366.48 501.52">
  <defs>
    <style>
      .cls-1 {
        fill: #f2a52d;
      }

      .cls-2 {
        fill: #eaa21f;
      }
    </style>
  </defs>
  <g id="Layer_47" data-name="Layer 47">
    <path d="M97.99,133.02c-9.24-6.55-18.41-13.11-27.65-19.57-2.87-2.01-6.09-3.71-8.06-6.63-3.56-5.29-8.83-7.29-14.63-8.66-3.89-.92-7.78-1.9-11.56-3.17-1.81-.61-7.68-4.38-8.88-10.98-.52-2.89,.06-5.35,.54-6.79,7.83-1.04,15.65-2.07,23.48-3.11,.87-1.22,2.73-3.44,5.87-4.86,4.97-2.25,9.59-.87,10.93-.44,3.31,1.05,5.51,2.92,6.65,4.06,15.09-6.41,21.15-5.48,23.65-2.87,2.22,2.32,1.83,6.13,4.64,7.11,2.47,.87,3.92-1.71,9.55-3.03,2.8-.66,6.4-1.5,9.31,.29,3.91,2.4,4.13,8.02,4.16,8.99,3.97-1.13,8.09,.96,9.43,4.56,1.19,3.18,0,6.95-2.99,9,1.3,1.13,3.57,2.75,6.72,3.42,5.24,1.11,11.54-.71,12-3.3,.26-1.47-1.59-1.89-3.29-5.03-2.49-4.61-.39-7.24-2.3-9.82-2.71-3.66-8.18-.05-12.72-3.27-4.42-3.14-4.19-10.24-3.89-20.85,.21-7.33,1.5-10.25,2.62-12.1,.69-1.14,2.74-4.44,6.78-6.48,7.12-3.58,14.47-.22,15.53,.29,8.54,4.06,11.12,4.74,11.4,4.25,.46-.78-5.58-3.55-7.08-9.56-.08-.34-1.21-5.15,1.44-9.32,1.7-2.68,4.25-4.04,6.83-5.41,3.48-1.85,4.98-1.65,6.6-3.44,1.69-1.87,2.06-4.31,2.1-6.14,0-.57,0-5.39,3.85-8.29C181.25,.17,183.64,.02,184.42,0c.77-.02,4.44,0,7.15,2.99,2.68,2.96,2.36,6.57,2.3,7.14,.3,1.13,1.07,3.46,3.15,5.62,1.82,1.89,3.78,2.77,4.86,3.16,.85,.25,4.92,1.54,7.17,5.69,2.17,4.02,1.17,7.99,.79,9.22-1.74,5.65-7.13,8.01-6.63,8.87,.48,.83,5.24-1.81,11.99-3.44,5.26-1.27,14.11-3.41,19.15,1,1.74,1.53,2.49,3.36,3.66,6.24,1.36,3.34,1.92,6.61,2.07,11.15,.38,11.12,.66,17.11-3.11,19.72-4.21,2.9-9.72-.55-12.28,2.87-1.64,2.19,.21,4.15-1.56,8.86-1.49,3.98-3.6,4.67-3.13,6.43,.69,2.61,6.06,3.99,10.29,3.23,3.81-.69,6.28-3.04,7.28-4.11-4.07-1.25-6.24-5.69-4.84-9.53,1.34-3.67,5.55-5.69,9.39-4.34-.04-.77-.25-5.91,3.27-8.58,2.77-2.1,6.33-1.5,8.85-1.08,6.68,1.12,8.76,5.14,11.58,4.06,2.98-1.15,1.81-6.02,4.61-8.33,2.42-1.99,7.81-2.11,20.68,5.51,1.41-1.17,4.17-3.12,8.14-3.87,1.93-.36,5.47-1.03,9.22,.84,3.56,1.78,5.23,4.82,5.79,5.99,8.86,1.2,17.72,2.4,26.58,3.61-.22,3.71-1.15,9.18-5.18,12.71-4.01,3.51-7.9,2.73-15.56,5.3-5.46,1.83-10.27,4.2-14.1,8.87-5.12,6.25-12.62,9.73-18.86,14.72-4.55,3.64-9.29,7.05-13.97,10.53-2.34,1.74-3.03,3.1,.48,4.25,26.15,8.64,52.48,16.45,80.36,16.76,9.39,.11,12.41,3.17,12.42,12.78,.04,47.83,.07,95.66,.08,143.49,.01,42.72-14.51,80.21-41.1,113.26-27.96,34.75-64.83,56.29-106.14,71.15-5.95,2.14-12,4.03-18.02,5.98-5.35,1.73-10.06,2.55-15.85,2.76-2.35,.09-9.15,.17-18.56-2.67-64.47-19.42-101.15-52.81-101.15-52.81-11.97-10.9-31.97-29.46-46.89-60.35-3.37-6.97-13.12-28.11-17.03-57.28C.33,317.78-.02,307.16,0,296.49c.09-43,.08-86,.12-128.99,0-2-.04-4.01,.2-5.99,.41-3.32,1.42-5.72,3.2-7.28,2.7-2.36,6.45-2.23,7.38-2.21,6.45,.11,35.61-6.28,87.09-19Z"/>
  </g>
  <g id="Layer_46" data-name="Layer 46">
    <path class="cls-2" d="M284.55,272.37c-23.72,26.69-35.59,40.04-35.61,40.06t0,0c-8.76-28.07-12.26-39.37-12.32-39.74,0,0,0-.05-.02-.12-.02-.09-.12-.57-.43-1-.24-.34-.56-.57-.6-.57-.63,0-.01,62.63,.91,135.73-12.7,8.93-25.39,17.86-38.09,26.79-1.05-85.91-2.09-171.82-3.14-257.73,15.53,5.62,31.06,11.23,46.59,16.85,.02,.02,.04,.04,.06,.05,7.59,12.22,15.18,24.45,22.76,36.67,9.96-7.54,19.93-15.08,29.89-22.62,14.56,1.24,29.13,2.49,43.69,3.73-.81,19.79-4.2,46.41-14.97,75.86-19.57,53.49-52.93,87.43-72.03,104.13,.05-17.82,.09-35.63,.14-53.45,11.06-21.55,22.12-43.11,33.17-64.66Z"/>
  </g>
  <g id="Layer_45" data-name="Layer 45">
    <g>
      <path class="cls-2" d="M31.42,82.84c11.64-1.18,20.07-2.43,21.21-2.97,.9-.43,1.48-.97,1.48-.97,.56-.52,.64-.82,1.03-1.16,.4-.35,1.1-.73,2.39-.7,.25,4.85,1.82,8.17,2.87,9.97,1.12,1.92,2.95,5.23,5.57,5.07,4.03-.25,3.66-3.93,3.21-6.95-.1-.7-.21-1.45-.56-2.39-.97-2.63-2.84-3.44-2.52-4.28,.32-.84,2.43-.72,2.82-.7,2.15,.12,3.67,1.27,4.33,1.83,6.87-.34,12.07-1.35,15.71-2.28,2.02-.51,4.6-1.27,5.72-.04,1.32,1.45-.17,4.76-.68,5.83-4.99,6.39-5.3,9.16-4.44,10.46,.83,1.26,2.97,1.44,5.23,4.15,.65,.78,1.09,1.5,1.35,1.98-.73,.34-1.85,.72-3.14,.58-1.67-.19-2.55-1.13-3.68-1.88-3.63-2.41-8.21-1.13-11.25-.66-2.87,.44-3.68,3.55-.93,5.13,7.55,4.34,15.03,9.3,23.27,11.89,9.03,2.84,13.82-.22,18.51-8.24q3.6-6.15,9.88-2.8c5.64,3.01,11.33,4.13,16.78,3.4,2.65-.36,5.66-.26,8.97-2.02,3.4-1.81,5.32-4.36,6.23-5.59,2.25-3.04,3.17-6.02,3.58-7.8,.87-.49,1.32-.44,1.57-.29,1.17,.73,.22,5.3-2.22,8.62-.33,.45-1.01,1.27-2.54,2.61-2.31,2.02-4.92,3.45-8.42,5.1-3.36,1.58-7.89,3.46-13.47,5.07-1.59,.46-2.91,.75-3.82,.94-3.34,.7-4.43,.58-7.7,2.02-4.91,2.17-8.43,5.08-10.67,7.26-8.97,4.04-14.73,6.64-14.74,6.64,0,0-2.76-1.77-8.01-5.13-1.05-.84-2.1-1.7-3.15-2.57-4.08-3.37-7.99-6.75-11.73-10.13-7-8.95-11.15-11.19-13.73-11.27-.35-.01-.99,0-1.82-.26-2.68-.88-3.28-3.47-6.18-6.88-1.32-1.56-1.99-2.34-3.02-2.99-3.04-1.91-5.17-.69-11.79-2.04-1.45-.29-2.67-.62-3.94-.96-2.61-.7-4.79-1.4-6.42-1.97l-1.13-2.66Z"/>
      <path class="cls-2" d="M177.48,62.77c-2.67-3.1,1.29-6.64-.08-12.76-2.27-10.05-15.68-12.39-14.74-18.98,.18-1.25,.97-3.31,2.71-4,2.26-.9,4.75,1.08,5.01,1.29,.84,2.02,3.14,2.69,4.56,1.84,1.13-.68,1.69-2.31,1.14-3.86-1.46-1.86-2.91-3.71-4.37-5.57,6.41-3.04,8.11-5.84,8.38-7.91,.07-.52,.03-.89,.16-1.66,.53-3.16,2.54-5.42,4.22-6.88,1.63,1.46,3.62,3.76,4.13,7,.1,.6,.08,.89,.14,1.29,.28,2.04,1.93,4.84,8.18,7.98-1.47,1.86-2.95,3.72-4.42,5.58-.59,1.62-.04,3.27,1.01,3.86,1.29,.73,3.59-.04,4.35-2.22,1.43-1.55,3.45-2.15,5.04-1.53,2.28,.89,2.59,4.36,2.61,4.59,.6,7.5-13.28,9.49-15.63,19.89-1.32,5.85,2.18,9.2-.47,12.13-2.68,2.97-9.34,2.93-11.93-.08Z"/>
      <path class="cls-2" d="M211.51,70.26c3.96,3.23,3.5,10.45-.64,13.34-2.49,1.74-6.04,1.73-9.12,.1-12.31,.13-24.62,.26-36.93,.39-.26,.13-5.22,2.56-8.93,.1-4.51-2.99-4.5-11.45-.1-14.39,3.46-2.31,8.12-.22,8.51-.04l37.36,.23c3.34-1.91,7.31-1.79,9.85,.28Z"/>
      <path class="cls-2" d="M141.98,62.42c-4.08-3.15-5.81-6.9-5-11.27,.88-4.79,4.29-7.72,9.32-8.6,4.38-.77,7.9,.56,9.54,1.24,5.87,2.43,10.15,7.67,11.71,13.31,.48,1.76,.63,3.27,.67,4.28-.94-.36-2.34-.96-3.93-1.91-4.03-2.42-4.79-3.96-7.38-5.94-2.82-2.16-6.56-2.64-9.67-1.21-3.69,1.7-5.88,5.83-5.25,10.1Z"/>
      <path class="cls-2" d="M251.41,75.42c1.38,.25,3.07,.81,3.83,2.2,1.27,2.31-1.44,4.4-.56,7.72,.76,2.89,3.21,2.83,3.87,6.14,.12,.62,.57,2.9-.81,4.44-1.42,1.59-3.86,1.34-4.33,1.28-3.47-.44-3.43-3.52-6.86-4.7-3.89-1.34-6.66,1.68-9.31-.35-1.31-1-1.64-2.51-1.7-2.78-.32-1.57,.16-3.46,1.36-4.53,2.37-2.12,5.8,.53,7.77-1.33,1.76-1.67-.04-4.67,1.85-6.72,1.27-1.38,3.42-1.46,4.89-1.35Z"/>
      <path class="cls-2" d="M334.11,82.74c-11.62-1.18-20.04-2.43-21.17-2.97-.9-.43-1.47-.97-1.47-.97-.56-.52-.64-.82-1.03-1.16-.4-.35-1.1-.73-2.39-.7-.25,4.85-1.82,8.17-2.86,9.97-1.12,1.92-2.95,5.23-5.56,5.07-4.02-.25-3.65-3.93-3.2-6.95,.1-.7,.21-1.45,.56-2.39,.97-2.63,2.84-3.44,2.51-4.28-.32-.84-2.43-.72-2.81-.7-2.14,.12-3.66,1.27-4.32,1.83-6.86-.34-12.05-1.35-15.68-2.28-2.02-.51-4.59-1.27-5.71-.04-1.31,1.45,.17,4.76,.68,5.83,4.98,6.39,5.29,9.16,4.43,10.46-.83,1.26-2.96,1.44-5.22,4.15-.65,.78-1.09,1.5-1.35,1.98,.73,.34,1.84,.72,3.14,.58,1.67-.19,2.55-1.13,3.68-1.88,3.63-2.41,8.2-1.13,11.23-.66,2.86,.44,3.67,3.55,.93,5.13-7.53,4.34-15,9.3-23.22,11.89-9.01,2.84-13.79-.22-18.48-8.24q-3.59-6.15-9.86-2.8c-5.62,3.01-11.31,4.13-16.75,3.4-2.64-.36-5.65-.26-8.95-2.02-3.39-1.81-5.31-4.36-6.21-5.59-2.24-3.04-3.16-6.02-3.57-7.8-.87-.49-1.32-.44-1.57-.29-1.16,.73-.22,5.3,2.22,8.62,.33,.45,1.01,1.27,2.54,2.61,2.31,2.02,4.91,3.45,8.4,5.1,3.35,1.58,7.87,3.46,13.44,5.07,1.59,.46,2.9,.75,3.81,.94,3.33,.7,4.42,.58,7.69,2.02,4.9,2.17,8.41,5.08,10.65,7.26,8.95,4.04,14.71,6.64,14.71,6.64,0,0,2.75-1.77,7.99-5.13,1.04-.84,2.09-1.7,3.14-2.57,4.07-3.37,7.97-6.75,11.71-10.13,6.99-8.95,11.13-11.19,13.7-11.27,.35-.01,.99,0,1.82-.26,2.68-.88,3.27-3.47,6.16-6.88,1.32-1.56,1.98-2.34,3.01-2.99,3.04-1.91,5.16-.69,11.77-2.04,1.44-.29,2.67-.62,3.93-.96,2.6-.7,4.78-1.4,6.4-1.97l1.12-2.66Z"/>
      <path class="cls-2" d="M115.86,77.94c-1.42,.25-3.15,.81-3.93,2.2-1.3,2.31,1.48,4.4,.58,7.72-.78,2.89-3.3,2.83-3.97,6.14-.12,.62-.59,2.9,.83,4.44,1.46,1.59,3.97,1.34,4.45,1.28,3.56-.44,3.53-3.52,7.05-4.7,4-1.34,6.84,1.68,9.57-.35,1.34-1,1.69-2.51,1.74-2.78,.33-1.57-.17-3.46-1.4-4.53-2.44-2.12-5.96,.53-7.99-1.33-1.81-1.67,.04-4.67-1.9-6.72-1.31-1.38-3.51-1.46-5.02-1.35Z"/>
      <path class="cls-2" d="M226.29,62.42c4.25-3.15,6.05-6.9,5.22-11.27-.91-4.79-4.48-7.72-9.71-8.6-4.57-.77-8.24,.56-9.95,1.24-6.12,2.43-10.58,7.67-12.21,13.31-.51,1.76-.65,3.27-.7,4.28,.98-.36,2.44-.96,4.1-1.91,4.2-2.42,5-3.96,7.7-5.94,2.95-2.16,6.84-2.64,10.08-1.21,3.85,1.7,6.13,5.83,5.47,10.1Z"/>
    </g>
  </g>
  <g id="Layer_44" data-name="Layer 44">
    <path class="cls-2" d="M134.63,356.01c.44-53.54,.87-107.08,1.31-160.62,12.94-6.45,25.89-12.9,38.83-19.34,.93,85.75,1.87,171.5,2.8,257.24-18.89-9.38-71-37.49-105.5-88.09-17.46-25.61-28.32-53.93-30.77-60.53-.11-.29-.21-.58-.35-.95-8.26-22.65-10.51-45.1-9.17-66.34,11.62-1.11,23.25-2.22,34.87-3.33,4.08,27.42,14.1,67.37,40.77,107.64,8.86,13.38,18.21,24.75,27.21,34.32Z"/>
  </g>
  <g id="Layer_4" data-name="Layer 4">
    <g id="Layer_43" data-name="Layer 43">
      <g id="Layer_30" data-name="Layer 30">
        <g id="Layer_17" data-name="Layer 17">
          <path class="cls-2" d="M113.37,134.84c11.51,2.48,23.03,4.96,34.54,7.44,4.55-2.31,9.09-4.62,13.64-6.93,2.94-1.39,5.88-2.77,8.82-4.16,.74-.83,5.71-6.2,13.85-6.16,8.01,.04,12.89,5.3,13.64,6.14,5.85,2.67,11.79,5.47,17.8,8.39,4.83,2.35,9.56,4.7,14.2,7.06,2.42,1.09,4.83,2.18,7.25,3.27,16.1-1.05,32.2-2.1,48.3-3.15-11.93-3.34-24.85-7.56-38.47-12.93-9.97-3.94-17.95-7.69-29.74-13.18-11.33-5.27-20.74-9.88-27.55-13.29-1.83-.89-2.8-2.48-2.51-3.76,.31-1.38,1.98-1.95,2.05-1.98,2.88-.95,5.37,2.52,6.52,1.82,1.47-.9,.68-8.62-4.43-12.64-5.01-3.95-13.03-3.41-17.73,.67-4.87,4.22-5.49,11.62-4.27,12.29,.83,.45,2.37-2.29,5.14-2.07,1.4,.11,3.05,.97,3.29,2.2,.27,1.4-1.25,3.33-3.98,4.02"/>
        </g>
      </g>
    </g>
    <g id="Layer_42" data-name="Layer 42">
      <g id="Layer_29" data-name="Layer 29">
        <g id="Layer_16" data-name="Layer 16">
          <path class="cls-2" d="M113.37,134.84c13,1.77,26,3.54,38.99,5.3-38.5,18.65-78.37,32.54-121.49,34.9-4.43,.24-5.62,1.72-5.54,6.04,.2,10.77-.11,21.56-.22,32.33-5.41-3.18-11.37-1.72-17.12-2.03-.1-16.34-.18-32.69-.33-49.03-.01-1.12,.13-1.94,.63-2.45,.71-.72,1.85-.63,2.12-.62,4.4,.17,53.81-7.65,74.2-13.07,6.81-1.81,16.91-5.08,28.76-11.38Z"/>
        </g>
      </g>
    </g>
    <g id="Layer_41" data-name="Layer 41">
      <g id="Layer_28" data-name="Layer 28">
        <g id="Layer_15" data-name="Layer 15">
          <path class="cls-2" d="M237.11,149.89c14.32-1.59,28.64-3.17,42.97-4.76,9.79,3.01,18.16,5.22,24.54,6.78,16.84,4.12,25.29,5.4,30.55,6.07,6.5,.83,13,1.72,19.57,1.44,2.13-.09,3.48,.18,3.45,2.88-.21,17.7-.3,35.39-.44,53.09-4.97-2.05-9.61-3.04-12.43,3.31-.42,.96-1.78,.75-2.78,.78-.09-12.64-.4-25.28-.16-37.91,.1-4.94-1.12-6.53-6.35-6.73-34.68-1.36-67.25-11.47-98.94-24.95Z"/>
        </g>
      </g>
    </g>
    <g id="Layer_40" data-name="Layer 40">
      <g id="Layer_27" data-name="Layer 27">
        <g id="Layer_14" data-name="Layer 14">
          <path class="cls-2" d="M276.4,455.57c-1.38,1.01-3.51,2.54-6.16,4.33-5.64,3.81-23.94,15.75-56.85,26.96-14.58,4.96-22.02,7.44-29.66,7.22-8.83-.26-16.3-2.68-28.99-6.79-3.95-1.28-11.76-3.9-21.32-8.18-6.54-2.93-12.1-5.82-16.56-8.3,9.75-.86,19.51-1.71,29.26-2.57,16.53,8.12,30.07,8.83,37.73,8.52,14.55-.59,26.82-5.64,43.64-12.56,7.42-3.05,13.39-5.93,17.35-7.93,10.52-.23,21.05-.46,31.57-.68Z"/>
        </g>
      </g>
    </g>
    <g id="Layer_39" data-name="Layer 39">
      <g id="Layer_26" data-name="Layer 26">
        <g id="Layer_13" data-name="Layer 13">
          <path class="cls-2" d="M147.78,469.02c-9.98,.75-19.96,1.49-29.95,2.24-16.28-8.7-29.39-17.35-39.21-24.42-16.42-11.82-22.53-19.13-25.22-22.44-2.14-2.64-6.14-7.87-10.3-13.85-3.26-4.68-5.84-8.71-7.67-11.64,6-.49,12-.98,18-1.46,3.81,5.33,13.72,18.67,26.76,30.33,8.74,7.81,18.47,14.49,19.73,15.36,6.82,4.66,12.17,7.72,16.86,10.39,7.72,4.39,18.14,9.88,31,15.5Z"/>
        </g>
      </g>
    </g>
    <g id="Layer_38" data-name="Layer 38">
      <g id="Layer_25" data-name="Layer 25">
        <g id="Layer_12" data-name="Layer 12">
          <path class="cls-2" d="M358.58,296.06c.65,10.39,.5,24-2.37,39.59-3.16,17.2-8.59,31.08-13.37,41.03-2.98-6.21-5.96-12.42-8.94-18.63,.66-2.74,1.37-5.46,2.07-8.18,2.4-9.25,3.92-16.85,4.32-18.8,2.81-13.76,2.52-33.69,2.32-41.4l15.96,6.39Z"/>
        </g>
      </g>
    </g>
    <g id="Layer_37" data-name="Layer 37">
      <g id="Layer_24" data-name="Layer 24">
        <g id="Layer_11" data-name="Layer 11">
          <path class="cls-2" d="M252.15,470.43c-8.22-2.08-16.45-4.16-24.67-6.24,3.6-1.53,8.33-3.63,13.8-6.33,3.78-1.87,13.29-6.64,23.1-12.86,11.67-7.4,21.84-16.65,32.03-25.88,9.24-3.64,18.48-7.28,27.72-10.92-7.96,11.59-15.95,20.33-22.25,26.5-10.71,10.48-20.2,17.11-27.01,21.82-8.87,6.14-16.77,10.71-22.72,13.91Z"/>
        </g>
      </g>
    </g>
    <g id="Layer_36" data-name="Layer 36">
      <g id="Layer_23" data-name="Layer 23">
        <g id="Layer_10" data-name="Layer 10">
          <path class="cls-1" d="M18.54,364.2c-3.11-8.34-6.23-18.71-8.28-30.82-1.83-10.8-2.39-20.53-2.35-28.72,5.61,1.64,11.33,.96,17.03,.91,.26,5.35,.32,10.73,.83,16.06,1.43,15.1,5.53,29.58,10.46,43.85-5.89-.42-11.79-.85-17.68-1.27Z"/>
        </g>
      </g>
    </g>
    <g id="Layer_35" data-name="Layer 35">
      <g id="Layer_22" data-name="Layer 22">
        <g id="Layer_9" data-name="Layer 9">
          <path class="cls-2" d="M312.74,422.89c-5.44-1.26-10.89-2.51-16.33-3.77,8.91-9.27,20.2-23.18,29.37-42.19,5.78-11.98,9.34-23.14,11.59-32.47,4.48,1.12,8.96,2.24,13.43,3.37-2.53,16.19-7.42,28.24-11.26,35.99-5.88,11.88-13.23,21.64-18.59,28.75-3.28,4.36-6.16,7.88-8.21,10.31Z"/>
        </g>
      </g>
    </g>
    <g id="Layer_34" data-name="Layer 34">
      <g id="Layer_21" data-name="Layer 21">
        <g id="Layer_8" data-name="Layer 8">
          <path class="cls-2" d="M24.93,305.57c-5.69,.05-11.42,.73-17.03-.91,.03-16.9,.05-33.8,.08-50.7,1.97,.25,3.04-.79,3.69-2.52,.32-.85,.33-2.4,1.59-2.1,4,.95,7.77-2.58,11.76-.45-.03,18.89-.06,37.79-.09,56.68Z"/>
        </g>
      </g>
    </g>
    <g id="Layer_33" data-name="Layer 33">
      <g id="Layer_20" data-name="Layer 20">
        <g id="Layer_7" data-name="Layer 7">
          <path class="cls-2" d="M17.64,361.23c6.19,1.42,12.39,2.83,18.58,4.25,5.02,11.71,11.08,22.86,18.18,33.43-5.14,1.85-10.28,3.7-15.42,5.55-6.38-8.74-12.97-19.8-18.03-33.28-1.28-3.41-2.37-6.73-3.31-9.94Z"/>
        </g>
      </g>
    </g>
    <g id="Layer_32" data-name="Layer 32">
      <g id="Layer_19" data-name="Layer 19">
        <g id="Layer_6" data-name="Layer 6">
          <path class="cls-2" d="M25.03,248.89c-3.99-2.13-7.76,1.41-11.76,.45-1.26-.3-1.27,1.25-1.59,2.1-.66,1.73-1.72,2.77-3.69,2.52,0-14.19,0-28.39,.01-42.58,5.75,.31,11.71-1.15,17.12,2.03,.52,11.83,.21,23.65-.09,35.48Z"/>
        </g>
      </g>
    </g>
    <g id="Layer_31" data-name="Layer 31">
      <g id="Layer_18" data-name="Layer 18">
        <g id="Layer_5" data-name="Layer 5">
          <path class="cls-2" d="M358.73,298.65l-16.1-7.84c-.03-23.78-.05-47.55-.08-71.33,1-.03,2.35,.18,2.78-.78,2.81-6.35,7.46-5.36,12.43-3.31,.15,5.42,.28,10.86,.39,16.32,.48,22.6,.66,44.92,.58,66.93Z"/>
        </g>
      </g>
    </g>
  </g>
</svg>